HIERARCHY
ROOT Hips
{
	OFFSET 0.000000 0.000000 0.000000
	CHANNELS 6 Xposition Yposition Zposition Zrotation Yrotation Xrotation 
	JOINT LHipJoint
	{
		OFFSET 0.000000 0.000000 0.000000
		CHANNELS 3 Zrotation Yrotation Xrotation
		JOINT LeftUpLeg
		{
			OFFSET 1.363060 -1.794630 0.839290
			CHANNELS 3 Zrotation Yrotation Xrotation
			JOINT LeftLeg
			{
				OFFSET 2.448110 -6.726130 0.000000
				CHANNELS 3 Zrotation Yrotation Xrotation
				JOINT LeftFoot
				{
					OFFSET 2.562200 -7.039590 0.000000
					CHANNELS 3 Zrotation Yrotation Xrotation
					JOINT LeftToeBase
					{
						OFFSET 0.157640 -0.433110 2.322550
						CHANNELS 3 Zrotation Yrotation Xrotation
						End Site
						{
							OFFSET 0.000000 0.000000 0.000000
						}
					}
				}
			}
		}
	}
	JOINT RHipJoint
	{
		OFFSET 0.000000 0.000000 0.000000
		CHANNELS 3 Zrotation Yrotation Xrotation
		JOINT RightUpLeg
		{
			OFFSET -1.305520 -1.794630 0.839290
			CHANNELS 3 Zrotation Yrotation Xrotation
			JOINT RightLeg
			{
				OFFSET -2.542530 -6.985550 0.000000
				CHANNELS 3 Zrotation Yrotation Xrotation
				JOINT RightFoot
				{
					OFFSET -2.568260 -7.056230 0.000000
					CHANNELS 3 Zrotation Yrotation Xrotation
					JOINT RightToeBase
					{
						OFFSET -0.164730 -0.452590 2.363150
						CHANNELS 3 Zrotation Yrotation Xrotation
						End Site
						{
							OFFSET 0.000000 0.000000 0.000000
						}
					}
				}
			}
		}
	}
}
MOTION
Frames: 33
Frame Time: 0.008333
4.054590 16.669213 1.222906 162.997770 -84.013014 -152.958540 -9.176761 0.864457 3.894867 -16.910837 -0.527523 -40.553312 -2.189559 0.560325 27.572848 1.154958 5.884605 -4.477066 0.620800 0.000000 -9.741700 10.921537 -5.911990 1.223851 3.369224 -8.762206 2.789781 1.143376 -2.621330 30.150942 0.796921 18.470042 16.019712 6.841699 0.000000 -82.027801
3.891974 16.638396 1.206354 159.672196 -83.874045 -149.857846 -8.977014 0.895336 3.715136 -17.584617 -0.433433 -40.504588 -2.115251 0.674945 29.445022 1.213225 6.120888 -5.089715 0.541400 0.000000 -9.413200 11.346427 -5.913452 1.193629 2.294933 -9.052492 1.485549 0.882733 -2.823193 33.317812 0.641659 19.344929 17.736234 7.782400 -0.000000 -82.211200
3.735300 16.605984 1.190959 156.551055 -83.719916 -146.968543 -8.757835 0.936018 3.535391 -18.255618 -0.377069 -40.365259 -2.058305 0.776059 31.220720 1.279484 6.324224 -5.966170 0.416300 -0.000000 -9.237100 11.763191 -5.866833 1.142122 1.281769 -9.304025 0.135412 0.625835 -3.012733 36.585677 0.473946 19.935982 19.393608 8.637500 0.000000 -81.450700
3.584152 16.572312 1.176263 153.469730 -83.556367 -144.126922 -8.511569 0.990037 3.360609 -18.944288 -0.377435 -40.105031 -2.021693 0.861578 32.849412 1.355914 6.517146 -7.055968 0.252000 -0.000000 -9.163200 12.182375 -5.775850 1.065521 0.297527 -9.551351 -1.257222 0.375887 -3.195443 39.934488 0.300398 20.180941 20.909649 9.321700 -0.000000 -79.848801
3.438052 16.538053 1.163313 150.638009 -83.379376 -141.540785 -8.264409 1.054758 3.190070 -19.616174 -0.393480 -39.747075 -2.003700 0.936795 34.330657 1.438859 6.682531 -8.312498 0.052200 -0.000000 -9.141800 12.575001 -5.646421 0.969632 -0.604880 -9.761117 -2.671223 0.133399 -3.375040 43.324049 0.128430 19.967969 22.194480 9.720100 -0.000001 -77.641900
3.296232 16.503923 1.151843 147.980335 -83.191733 -139.132434 -8.015702 1.131053 3.026300 -20.279435 -0.426616 -39.284322 -2.003050 1.001682 35.636799 1.528732 6.839058 -9.664439 -0.172400 0.000000 -9.136499 12.945844 -5.484739 0.856250 -1.441361 -9.945872 -4.104768 -0.104479 -3.556423 46.729854 -0.039343 19.251648 23.173507 9.760601 -0.000000 -75.128300
3.158049 16.470807 1.142224 145.549425 -82.996245 -136.953271 -7.777307 1.215874 2.869028 -20.919420 -0.457871 -38.731684 -2.015965 1.058344 36.763587 1.622996 6.990056 -11.043999 -0.411500 0.000000 -9.116600 13.285897 -5.297671 0.731125 -2.194546 -10.090946 -5.551693 -0.341662 -3.742178 50.120452 -0.202469 18.001012 23.787689 9.399500 0.000000 -72.597200
3.022728 16.439628 1.134510 143.350804 -82.797614 -135.004371 -7.555294 1.306890 2.718332 -21.528857 -0.476542 -38.103089 -2.038463 1.107986 37.710683 1.719052 7.141684 -12.386768 -0.654500 -0.000000 -9.064400 13.592918 -5.091421 0.600254 -2.858607 -10.186213 -7.010208 -0.581856 -3.933281 53.467318 -0.362531 16.232701 23.990495 8.643000 0.000001 -70.252600
2.889676 16.411227 1.128624 141.364898 -82.600375 -133.263441 -7.352037 1.402109 2.574217 -22.103070 -0.478072 -37.410500 -2.066813 1.151309 38.479976 1.814146 7.300133 -13.636367 -0.891000 -0.000000 -8.975001 13.868099 -4.870551 0.468830 -3.432946 -10.224312 -8.478616 -0.827399 -4.129212 56.741221 -0.521926 14.007753 23.752894 7.546401 0.000000 -68.159900
2.758307 16.386442 1.124706 139.606739 -82.413454 -131.740885 -7.174111 1.498162 2.435967 -22.628678 -0.452722 -36.674186 -2.097216 1.189406 39.087329 1.904128 7.460735 -14.754479 -1.112700 -0.000001 -8.853900 14.108024 -4.640403 0.342617 -3.905598 -10.194093 -9.955530 -1.078475 -4.327754 59.911366 -0.682710 11.418939 23.064561 6.201400 0.000000 -66.264200
2.628305 16.365889 1.122408 138.004736 -82.240564 -130.364860 -7.016159 1.595022 2.303888 -23.110794 -0.409838 -35.896564 -2.128161 1.222346 39.536240 1.987097 7.627003 -15.714524 -1.313100 -0.000001 -8.718900 14.319969 -4.402097 0.223722 -4.291600 -10.099490 -11.436771 -1.333453 -4.526348 62.945953 -0.846093 8.597050 21.939013 4.730300 -0.000000 -64.438600
2.499238 16.350072 1.121774 136.552880 -82.090855 -129.124652 -6.881411 1.690357 2.177506 -23.538487 -0.347500 -35.091275 -2.158237 1.250703 39.844614 2.059749 7.787284 -16.512310 -1.488100 0.000000 -8.588600 14.502157 -4.159273 0.115596 -4.584489 -9.937652 -12.917807 -1.588388 -4.720883 65.810507 -1.011837 5.678530 20.415952 3.257500 0.000000 -62.530700
2.370865 16.339369 1.122643 135.208316 -81.970406 -127.976131 -6.767937 1.783440 2.056660 -23.909844 -0.272352 -34.260670 -2.187740 1.274577 40.023321 2.120416 7.932303 -17.157081 -1.636200 -0.000000 -8.480600 14.656883 -3.913473 0.019449 -4.791239 -9.714065 -14.391541 -1.837921 -4.907090 68.471177 -1.177854 2.805949 18.560686 1.898100 -0.000000 -60.405800
2.243088 16.333943 1.124939 133.930430 -81.884571 -126.879107 -6.674048 1.873531 1.941045 -24.222860 -0.190751 -33.404170 -2.217942 1.293843 40.080777 2.168354 8.051694 -17.670704 -1.758101 -0.000000 -8.406000 14.785382 -3.666003 -0.064277 -4.919079 -9.435908 -15.849611 -2.075766 -5.080550 70.896662 -1.339778 0.109918 16.456770 0.740400 0.000000 -57.967500
2.115736 16.333833 1.128571 132.687776 -81.837465 -125.801234 -6.598787 1.960060 1.830498 -24.475182 -0.107646 -32.518722 -2.250649 1.308120 40.023373 2.203450 8.134388 -18.082562 -1.856400 -0.000000 -8.367600 14.887673 -3.418398 -0.135492 -4.975149 -9.111835 -17.283355 -2.295244 -5.236916 73.059626 -1.491092 -2.300718 14.198038 -0.163301 0.000000 -55.168400
1.988660 16.338943 1.133676 131.461518 -81.832800 -124.724129 -6.542366 2.041993 1.724483 -24.664568 -0.025263 -31.600880 -2.287755 1.316796 39.855102 2.226125 8.170609 -18.424404 -1.934600 0.000001 -8.360900 14.962337 -3.172231 -0.194741 -4.965648 -8.751093 -18.685849 -2.489924 -5.372513 74.939380 -1.623589 -4.344387 11.876128 -0.797400 0.000000 -52.011100
1.861689 16.349160 1.140072 130.217646 -81.869219 -123.617106 -6.503178 2.119751 1.623503 -24.791870 0.054215 -30.639093 -2.331382 1.318806 39.571296 2.237543 8.156063 -18.722575 -1.996200 0.000000 -8.377600 15.009572 -2.928857 -0.242667 -4.901849 -8.365161 -20.045757 -2.654148 -5.484297 76.519388 -1.728624 -5.967677 9.573625 -1.177300 0.000000 -48.545300
1.734674 16.364254 1.147958 128.956541 -81.946303 -122.482677 -6.482694 2.192129 1.527110 -24.855577 0.133373 -29.627844 -2.382761 1.312943 39.167975 2.238665 8.087733 -18.997944 -2.044300 0.000000 -8.408600 15.026887 -2.690056 -0.280063 -4.789277 -7.961758 -21.356842 -2.783159 -5.570270 77.790645 -1.798699 -7.147879 7.357467 -1.341300 0.000000 -44.863500
1.607424 16.384033 1.157304 127.671303 -82.060168 -121.318609 -6.481430 2.258915 1.435806 -24.855634 0.216302 -28.558061 -2.442511 1.297772 38.636753 2.230550 7.967703 -19.260103 -2.080400 -0.000000 -8.447001 15.013198 -2.457766 -0.307072 -4.634779 -7.548525 -22.610424 -2.873438 -5.629168 78.747951 -1.828825 -7.889229 5.276830 -1.340100 -0.000000 -41.092100
1.479503 16.408147 1.168311 126.379220 -82.208215 -120.139798 -6.501134 2.318819 1.349213 -24.791430 0.307672 -27.429655 -2.510173 1.271976 37.972453 2.213858 7.799252 -19.509967 -2.104600 -0.000000 -8.490700 14.966706 -2.233448 -0.323995 -4.441213 -7.128928 -23.804534 -2.922846 -5.660739 79.392404 -1.817526 -8.220485 3.365024 -1.227000 -0.000000 -37.389200
1.350683 16.436437 1.180964 125.092478 -82.385243 -118.963056 -6.542747 2.371445 1.268006 -24.663285 0.413908 -26.237514 -2.584421 1.234089 37.165897 2.189035 7.590106 -19.736086 -2.115500 0.000000 -8.544100 14.887091 -2.019141 -0.329830 -4.212273 -6.704509 -24.932344 -2.930724 -5.665235 79.726629 -1.767172 -8.190792 1.641949 -1.051200 -0.000000 -33.924700
1.220633 16.468607 1.195446 123.838951 -82.588719 -117.815898 -6.607314 2.415643 1.192327 -24.471664 0.538937 -24.983785 -2.662821 1.182999 36.212634 2.156249 7.349189 -19.920497 -2.111100 0.000000 -8.617600 14.774283 -1.816157 -0.323824 -3.949384 -6.273616 -25.992138 -2.897926 -5.643746 79.757687 -1.683631 -7.865253 0.114838 -0.852600 0.000000 -30.872400
1.089259 16.504527 1.211746 122.641192 -82.815745 -116.729344 -6.695398 2.450976 1.121294 -24.216510 0.690707 -23.660659 -2.742497 1.117815 35.104905 2.114999 7.085448 -20.038635 -2.088800 -0.000000 -8.726601 14.629320 -1.626599 -0.306241 -3.654521 -5.834719 -26.970778 -2.826226 -5.598003 79.492114 -1.575080 -7.318320 -1.227831 -0.658700 -0.000000 -28.303000
0.956133 16.543794 1.229862 121.526934 -83.065089 -115.722956 -6.805890 2.476901 1.055495 -23.900191 0.866627 -22.282415 -2.819927 1.038696 33.850211 2.065390 6.808228 -20.069453 -2.047100 -0.000000 -8.887900 14.454530 -1.450066 -0.276200 -3.326638 -5.383814 -27.874414 -2.719114 -5.529983 78.944188 -1.451859 -6.631391 -2.400779 -0.487400 -0.000000 -26.317899
0.821229 16.586249 1.249804 120.520197 -83.338313 -114.828977 -6.938473 2.493276 0.992341 -23.521270 1.072868 -20.840199 -2.891593 0.945954 32.447435 2.006598 6.524088 -19.990130 -1.984500 -0.000000 -9.119300 14.252030 -1.288073 -0.236398 -2.965440 -4.919997 -28.685076 -2.579661 -5.442192 78.121872 -1.324403 -5.884820 -3.435340 -0.346100 0.000000 -24.858401
0.684441 16.631350 1.271360 119.624595 -83.635243 -114.044761 -7.089504 2.500887 0.933568 -23.086514 1.299039 -19.350573 -2.954193 0.841175 30.911849 1.939582 6.242633 -19.787957 -1.902100 0.000000 -9.430700 14.025967 -1.138828 -0.186707 -2.572294 -4.442569 -29.409722 -2.412481 -5.336797 77.041744 -1.203194 -5.155054 -4.360340 -0.236200 0.000000 -23.874100
0.545964 16.678756 1.294474 118.844585 -83.957718 -113.381067 -7.257949 2.500135 0.875263 -22.596584 1.547621 -17.809355 -3.005084 0.726437 29.252689 1.864174 5.966629 -19.454560 -1.800800 0.000000 -9.830500 13.778589 -1.001989 -0.132267 -2.147044 -3.954165 -30.032038 -2.221448 -5.216092 75.713421 -1.097450 -4.509380 -5.205315 -0.154800 -0.000001 -23.236500
0.405931 16.727906 1.318966 118.170050 -84.306937 -112.828065 -7.442235 2.492072 0.815445 -22.054999 1.814884 -16.220730 -3.042160 0.604503 27.486547 1.781207 5.698978 -18.990946 -1.683200 0.000001 -10.317900 13.512095 -0.876212 -0.077120 -1.690615 -3.459076 -30.544641 -2.011020 -5.081663 74.147887 -1.015116 -4.003350 -5.988860 -0.096400 0.000000 -22.835100
0.264299 16.778080 1.344461 117.552031 -84.680874 -112.329405 -7.638544 2.479534 0.757556 -21.472675 2.086671 -14.602993 -3.064297 0.478373 25.637842 1.692991 5.444912 -18.407940 -1.553500 0.000000 -10.880800 13.229993 -0.759293 -0.021504 -1.207596 -2.965247 -30.955581 -1.786411 -4.934265 72.359965 -0.962213 -3.676002 -6.721043 -0.054400 0.000000 -22.548300
0.121439 16.828573 1.370672 116.941072 -85.077642 -111.839997 -7.846768 2.464640 0.699369 -20.854448 2.365822 -12.960318 -3.071275 0.351482 23.728843 1.600370 5.200425 -17.721148 -1.414900 -0.000000 -11.509401 12.933363 -0.650461 0.030814 -0.700851 -2.481903 -31.257159 -1.552623 -4.774417 70.359161 -0.942830 -3.550479 -7.396937 -0.022000 -0.000000 -22.298600
-0.022448 16.878644 1.397310 116.254137 -85.496594 -111.274590 -8.065072 2.449899 0.642136 -20.206729 2.649148 -11.310143 -3.063395 0.226903 21.786908 1.504831 4.962218 -16.950452 -1.271100 0.000001 -12.188800 12.624554 -0.548770 0.079250 -0.173020 -2.019968 -31.455674 -1.314813 -4.602260 68.154982 -0.958896 -3.632550 -7.999862 0.006100 -0.000000 -22.026700
-0.167265 16.927602 1.424046 115.382053 -85.938009 -110.519457 -8.291617 2.437823 0.585638 -19.533387 2.940059 -9.670534 -3.041695 0.107502 19.841425 1.407108 4.721582 -16.118096 -1.125100 0.000000 -12.908200 12.306405 -0.454248 0.123334 0.374571 -1.590611 -31.557490 -1.077743 -4.418104 65.755183 -1.009851 -3.910878 -8.503748 0.032000 -0.000001 -21.712400
-0.313050 16.974812 1.450519 114.156365 -86.400010 -109.401307 -8.524937 2.431512 0.531049 -18.838140 3.245489 -8.064765 -3.007953 -0.004165 17.923753 1.307329 4.466623 -15.245424 -0.979500 -0.000000 -13.661901 11.981901 -0.367711 0.164963 0.939216 -1.204782 -31.573728 -0.845669 -4.221923 63.166953 -1.092377 -4.358004 -8.877664 0.054000 0.000000 -21.362501
